<?xml version="1.0"?>
<svg xmlns="http://www.w3.org/2000/svg" id="Layer_1" data-name="Layer 1" viewBox="0 0 512 512" width="512" height="512"><title>right mark</title><path d="M251.92,44.53V64.66a36.383,36.383,0,0,1-36.38,36.38H150.46a36.383,36.383,0,0,1-36.38-36.38V44.53h31.99c3.65-16.64,18.79-29.12,36.93-29.12s33.28,12.48,36.93,29.12Z" style="fill:#f8ec7d"/><path d="M313.82,410.93,282.34,421.6a31.789,31.789,0,0,0-3.2,1.27H69.38A36.383,36.383,0,0,1,33,386.49V80.91A36.383,36.383,0,0,1,69.38,44.53h44.7V64.66a36.383,36.383,0,0,0,36.38,36.38h65.08a36.383,36.383,0,0,0,36.38-36.38V44.53h44.7A36.383,36.383,0,0,1,333,80.91V194.09a71.971,71.971,0,0,0-35.99,62.31l.08,24.64.18,8.13a12.3,12.3,0,0,0-11,9.36,16.657,16.657,0,0,0-.46,3.9,16.323,16.323,0,0,0,12.96,15.97l-22.49,84.54a134.672,134.672,0,0,0,16.7,2.61l19.4-20.48,1.08,20.27c4.57.04,10.01.42,15.56.44Z" style="fill:#6fe3ff"/><path d="M479,454.16v42.43H368.93V464.51l.07.07,55.18-53.65,31.48,10.67A34.377,34.377,0,0,1,479,454.16Z" style="fill:#cc7350"/><path d="M441.59,317.71l17.58,85.23L442.35,405l-18.26-16.5-14.3,17.55-.03-.01-11.9-4.03V382.18c24.03-10.27,40.84-36.15,40.84-63.58v-.1A15.612,15.612,0,0,0,441.59,317.71Z" style="fill:#5f6768"/><path d="M340.14,382.18a64.6,64.6,0,0,1-22.4-16.17A71.347,71.347,0,0,1,299.3,318.6v-.1c-.18-.03-.36-.07-.53-.1a16.323,16.323,0,0,1-12.96-15.97,16.657,16.657,0,0,1,.46-3.9,12.3,12.3,0,0,1,11-9.36l-.18-8.13,2.21,2.21a10.97,10.97,0,0,0,12.46,2.16,10.855,10.855,0,0,0,5.14-5.07c1.32-2.75,3.79-5.09,6.62-5.25,11.87-.66,33.02-1.75,53.75-16.22a86.775,86.775,0,0,0,62.72,26.8h.75l-.01,3.5a12.3,12.3,0,0,1,11,9.36,16.657,16.657,0,0,1,.46,3.9,16.33,16.33,0,0,1-10.6,15.28,15.612,15.612,0,0,1-2.89.79v.1c0,27.43-16.81,53.31-40.84,63.58a57.148,57.148,0,0,1-22.6,4.67H362.74A57.148,57.148,0,0,1,340.14,382.18Z" style="fill:#f7caa5"/><path d="M333,194.09a71.932,71.932,0,0,1,107.85,62.75l-.09,23.48c-21.18-5.06-38.45-19.1-44.73-36.88l-1.04-.88a91.579,91.579,0,0,1-17.72,16.31c-20.73,14.47-41.88,15.56-53.75,16.22-2.83.16-5.3,2.5-6.62,5.25a10.855,10.855,0,0,1-5.14,5.07,10.97,10.97,0,0,1-12.46-2.16l-2.21-2.21-.08-24.64A71.971,71.971,0,0,1,333,194.09Z" style="fill:#5f6768"/><path d="M440.76,280.32l-.02,5.35h-.75a86.775,86.775,0,0,1-62.72-26.8,91.579,91.579,0,0,0,17.72-16.31l1.04.88C402.31,261.22,419.58,275.26,440.76,280.32Z" style="fill:#494f4f"/><polygon points="424.18 410.93 369 464.58 368.93 464.51 368.93 430.72 369 430.79 397.86 402.01 409.76 406.04 409.79 406.05 424.18 410.93" style="fill:#e2d574"/><path d="M368.93,430.72l-28.79-28.71V382.18a57.148,57.148,0,0,0,22.6,4.67h12.52a57.148,57.148,0,0,0,22.6-4.67v19.83L369,430.79Z" style="fill:#edb288"/><path d="M368.93,464.51v32.08H259V454.16a34.37,34.37,0,0,1,20.14-31.29,31.789,31.789,0,0,1,3.2-1.27l31.48-10.67Z" style="fill:#e48e66"/><polygon points="368.93 430.72 368.93 464.51 313.82 410.93 329.02 405.78 329.03 405.78 340.14 402.01 368.93 430.72" style="fill:#f8ec7d"/><path d="M340.14,382.18v19.83l-11.11,3.77h-.01c-5.55-.02-10.99-.4-15.56-.44l-1.08-20.27-19.4,20.48a134.672,134.672,0,0,1-16.7-2.61l22.49-84.54c.17.03.35.07.53.1v.1a71.347,71.347,0,0,0,18.44,47.41A64.6,64.6,0,0,0,340.14,382.18Z" style="fill:#5f6768"/><path d="M391.56,480.61h-6.87a7,7,0,1,1,0-14h6.87a7,7,0,1,1,0,14Z" style="fill:#f8ec7d"/><path d="M165.67,293.52a6.981,6.981,0,0,1-4.89-1.992l-43.23-42.21a7,7,0,0,1,9.78-10.017l38.34,37.435,73-71.264a7,7,0,1,1,9.78,10.017l-77.89,76.039A6.983,6.983,0,0,1,165.67,293.52Z" style="fill:#2561a1"/></svg>
