<?xml version="1.0" encoding="UTF-8" standalone="no"?>
<svg id="Capa_1" xmlns:rdf="http://www.w3.org/1999/02/22-rdf-syntax-ns#" style="enable-background:new 0 0 95.667 95.667" xmlns="http://www.w3.org/2000/svg" xml:space="preserve" height="95.667px" viewBox="0 0 95.667 95.667" width="95.667px" version="1.1" y="0px" x="0px" xmlns:cc="http://creativecommons.org/ns#" xmlns:dc="http://purl.org/dc/elements/1.1/"><metadata id="metadata15"><rdf:RDF><cc:Work rdf:about=""><dc:format>image/svg+xml</dc:format><dc:type rdf:resource="http://purl.org/dc/dcmitype/StillImage"/><dc:title/></cc:Work></rdf:RDF></metadata><g id="g3"><g id="g5" fill="#bbbdbf"><path id="path7" d="m40.568 72.344-39.447-22.777c-0.619-0.356-1-1.018-1-1.731s0.381-1.375 1-1.732l39.447-22.78c0.619-0.357 1.381-0.357 2 0s1 1.018 1 1.732v10.605h34.052c1.104 0 2 0.896 2 2v20.344c0 1.104-0.896 2-2 2h-34.053v10.604c0 0.716-0.381 1.375-1 1.732-0.31 0.18-0.655 0.268-1 0.268s-0.69-0.088-0.999-0.265z"/><path id="path9" d="m80.775 0h-40.749c-1.104 0-2 0.896-2 2v6c0 1.104 0.896 2 2 2h40.749c2.632 0 4.771 2.141 4.771 4.771v66.125c0 2.631-2.141 4.771-4.771 4.771h-40.749c-1.104 0-2 0.896-2 2v6c0 1.104 0.896 2 2 2h40.749c8.146 0 14.771-6.627 14.771-14.771v-66.124c0-8.145-6.626-14.772-14.771-14.772z"/></g></g></svg>
