<svg width="492" height="492" xmlns="http://www.w3.org/2000/svg">

 <g>
  <title>background</title>
  <rect fill="none" id="canvas_background" height="402" width="582" y="-1" x="-1"/>
 </g>
 <g>
  <title>Layer 1</title>
  <g transform="rotate(180 245.99995422363278,245.99998474121097) " stroke="null" id="svg_1">
   <g stroke="null" id="svg_2">
    <path stroke="null" id="svg_3" d="m464.344,207.418l0.768,0.168l-329.224,0l103.496,-103.724c5.068,-5.064 7.848,-11.924 7.848,-19.124c0,-7.2 -2.78,-14.012 -7.848,-19.088l-16.104,-16.112c-5.064,-5.064 -11.812,-7.864 -19.008,-7.864c-7.2,0 -13.952,2.78 -19.016,7.844l-177.412,177.396c-5.084,5.084 -7.864,11.856 -7.844,19.06c-0.02,7.244 2.76,14.02 7.844,19.096l177.412,177.412c5.064,5.06 11.812,7.844 19.016,7.844c7.196,0 13.944,-2.788 19.008,-7.844l16.104,-16.112c5.068,-5.056 7.848,-11.808 7.848,-19.008c0,-7.196 -2.78,-13.592 -7.848,-18.652l-104.664,-104.304l329.992,0c14.828,0 27.288,-12.78 27.288,-27.6l0,-22.788c0,-14.82 -12.828,-26.6 -27.656,-26.6z"/>
   </g>
  </g>
 </g>
</svg>