<?xml version="1.0" standalone="no"?>
<!DOCTYPE svg PUBLIC "-//W3C//DTD SVG 20010904//EN"
 "http://www.w3.org/TR/2001/REC-SVG-20010904/DTD/svg10.dtd">
<svg version="1.0" xmlns="http://www.w3.org/2000/svg"
 width="400.000000pt" height="400.000000pt" viewBox="0 0 400.000000 400.000000"
 preserveAspectRatio="xMidYMid meet">
<metadata>
Created by potrace 1.11, written by Peter Selinger 2001-2013
</metadata>
<g transform="translate(0.000000,400.000000) scale(0.100000,-0.100000)"
fill="#000000" stroke="none">
<path d="M629 3112 c-40 -20 -67 -72 -369 -707 -35 -71 -86 -179 -115 -240
-163 -340 -156 -321 -134 -369 7 -15 39 -39 83 -62 39 -21 98 -51 131 -69 138
-72 160 -60 259 148 41 83 108 224 151 312 43 88 97 201 120 250 24 50 78 162
120 250 139 289 138 285 109 334 -11 19 -57 48 -150 95 -74 37 -142 69 -153
71 -10 2 -34 -4 -52 -13z"/>
<path d="M3304 3121 c-11 -3 -77 -35 -146 -70 -162 -83 -180 -109 -139 -203
10 -24 54 -115 96 -203 91 -189 189 -391 255 -530 229 -479 227 -477 290 -488
16 -3 50 7 90 27 274 134 280 142 216 279 -53 114 -196 411 -340 712 -48 99
-117 242 -153 317 -56 116 -71 139 -97 150 -38 15 -45 16 -72 9z"/>
<path d="M2014 2864 c-65 -13 -204 -60 -274 -93 -42 -19 -62 -21 -343 -21
l-297 0 -31 -67 c-17 -37 -37 -79 -44 -94 l-14 -25 195 1 c107 0 194 -2 194
-6 0 -3 -9 -18 -21 -33 -11 -14 -31 -52 -44 -83 -23 -57 -29 -91 -40 -207 -6
-53 -13 -99 -29 -163 -2 -12 -14 -43 -25 -69 -25 -57 -26 -87 -4 -125 37 -63
177 -94 273 -62 92 31 194 114 247 201 25 40 48 106 57 162 7 40 58 100 106
125 40 21 101 25 174 12 46 -9 63 -17 90 -47 18 -20 102 -97 187 -170 85 -74
156 -137 159 -140 3 -3 113 -99 245 -214 132 -115 256 -223 275 -240 19 -17
67 -58 105 -91 39 -33 82 -73 97 -89 84 -90 17 -236 -108 -236 -34 0 -99 33
-154 77 -55 45 -675 483 -684 484 -6 0 -19 2 -28 4 -28 5 -68 -33 -68 -63 1
-48 -30 -23 537 -427 241 -172 253 -184 253 -256 0 -59 -78 -112 -143 -95 -18
4 -219 140 -272 183 -5 5 -57 42 -115 83 -58 41 -109 78 -115 83 -5 4 -51 37
-102 73 -104 73 -143 83 -175 44 -24 -30 -23 -64 5 -94 12 -13 74 -60 137
-105 63 -44 120 -84 125 -88 6 -5 78 -58 162 -117 162 -116 191 -149 178 -206
-15 -69 -88 -112 -154 -89 -17 6 -31 15 -31 20 0 5 -4 9 -10 9 -5 0 -107 71
-227 158 -280 202 -285 205 -324 197 -41 -9 -64 -57 -44 -95 7 -14 92 -81 189
-150 188 -134 195 -143 156 -193 -21 -27 -67 -43 -110 -38 -34 4 -107 58 -131
97 -22 35 -48 55 -96 72 -59 20 -119 74 -131 117 -25 91 -93 145 -181 145 -60
0 -108 30 -109 68 -3 100 -94 185 -196 185 -66 0 -88 21 -81 79 14 133 -99
243 -229 225 l-45 -6 -132 166 -133 166 -39 -81 -38 -81 111 -141 112 -141
-78 -107 c-85 -117 -103 -156 -100 -218 8 -143 170 -229 300 -159 41 22 47 23
41 8 -25 -56 -13 -142 27 -193 63 -80 189 -102 271 -46 l34 23 -13 -36 c-38
-110 39 -227 155 -239 66 -6 116 12 164 62 22 22 37 35 33 28 -28 -47 -4 -145
45 -188 79 -67 210 -50 263 36 39 62 38 62 87 38 54 -26 138 -31 195 -11 50
17 118 73 140 115 14 27 17 28 32 15 9 -8 38 -24 64 -35 139 -61 310 23 349
171 l13 47 46 -1 c83 -2 154 29 208 91 24 28 51 95 55 139 3 34 8 45 23 47 90
13 146 41 198 98 85 93 93 245 18 351 l-31 44 44 91 c35 70 42 95 36 113 -5
12 -57 121 -116 242 -59 121 -122 253 -141 293 -19 40 -80 166 -135 280 -55
114 -107 224 -116 245 -14 33 -19 37 -52 38 -96 1 -160 12 -326 55 -306 79
-413 93 -531 68z"/>
</g>
</svg>
